<svg width="176" height="96" viewBox="0 0 176 96" fill="none" xmlns="http://www.w3.org/2000/svg">
<g filter="url(#filter0_d)">
<path d="M144 44L100 44" stroke="#EB5757" stroke-width="8"/>
<line x1="144" y1="12" x2="100" y2="12" stroke="#EB5757" stroke-width="8"/>
<line x1="160" y1="60" x2="160" y2="80" stroke="#EB5757" stroke-width="8"/>
<line x1="96" y1="8" x2="96" y2="80" stroke="#EB5757" stroke-width="8"/>
<path d="M156 28C156 34.6274 150.627 40 144 40L144 48C155.046 48 164 39.0457 164 28L156 28Z" fill="#EB5757"/>
<path d="M144 48C150.627 48 156 53.3726 156 60L164 60C164 48.9543 155.046 40 144 40L144 48Z" fill="#EB5757"/>
<path d="M144 16C150.627 16 156 21.3726 156 28L164 28C164 16.9543 155.046 8 144 8L144 16Z" fill="#EB5757"/>
<line x1="84" y1="12" x2="32" y2="12" stroke="#4F4F4F" stroke-width="8"/>
<line x1="84" y1="76" x2="32" y2="76" stroke="#4F4F4F" stroke-width="8"/>
<line x1="16" y1="28" x2="16" y2="60" stroke="#4F4F4F" stroke-width="8"/>
<path d="M20 28C20 21.3726 25.3726 16 32 16L32 8C20.9543 8 12 16.9543 12 28L20 28Z" fill="#4F4F4F"/>
<path d="M32 72C25.3726 72 20 66.6274 20 60L12 60C12 71.0457 20.9543 80 32 80L32 72Z" fill="#4F4F4F"/>
</g>
<defs>
<filter id="filter0_d" x="0" y="0" width="176" height="96" filterUnits="userSpaceOnUse" color-interpolation-filters="sRGB">
<feFlood flood-opacity="0" result="BackgroundImageFix"/>
<feColorMatrix in="SourceAlpha" type="matrix" values="0 0 0 0 0 0 0 0 0 0 0 0 0 0 0 0 0 0 127 0"/>
<feOffset dy="4"/>
<feGaussianBlur stdDeviation="2"/>
<feColorMatrix type="matrix" values="0 0 0 0 0 0 0 0 0 0 0 0 0 0 0 0 0 0 0.25 0"/>
<feBlend mode="normal" in2="BackgroundImageFix" result="effect1_dropShadow"/>
<feBlend mode="normal" in="SourceGraphic" in2="effect1_dropShadow" result="shape"/>
</filter>
</defs>
</svg>
